<?xml version="1.0" encoding="utf-8"?>
<!-- Generator: Adobe Illustrator 21.0.2, SVG Export Plug-In . SVG Version: 6.00 Build 0)  -->
<svg version="1.1" id="ig" xmlns="http://www.w3.org/2000/svg" xmlns:xlink="http://www.w3.org/1999/xlink" x="0px" y="0px"
	 viewBox="0 0 12 12" style="enable-background:new 0 0 12 12;" xml:space="preserve">
<style type="text/css">
	.st0{fill:#9D9D9D;}
</style>
<title>instagram_icn</title>
<path class="st0" d="M6,1.1h2.5c0.4,0,0.8,0.1,1.1,0.2c0.3,0.1,0.5,0.2,0.7,0.5c0.2,0.2,0.4,0.4,0.5,0.7C10.9,2.8,11,3.2,11,3.6v4.9
	c0,0.4-0.1,0.8-0.2,1.1c-0.1,0.3-0.2,0.5-0.5,0.7c-0.2,0.2-0.4,0.4-0.7,0.5C9.2,11,8.9,11,8.5,11.1H3.5c-0.4,0-0.8-0.1-1.2-0.2
	c-0.3-0.1-0.5-0.2-0.7-0.5c-0.2-0.2-0.4-0.4-0.5-0.7C1.1,9.3,1,8.9,1,8.5V3.6c0-0.4,0.1-0.8,0.2-1.2C1.3,2.2,1.5,2,1.7,1.8
	c0.2-0.2,0.4-0.4,0.7-0.5c0.4-0.1,0.8-0.2,1.2-0.2L6,1.1 M6,0H3.5C3,0,2.5,0.1,2.1,0.3C1.7,0.5,1.3,0.7,1,1C0.7,1.3,0.5,1.7,0.3,2.1
	C0.1,2.6,0,3,0,3.5v4.9c0,0.5,0.1,1,0.3,1.5c0.3,0.8,1,1.5,1.8,1.8C2.6,11.9,3,12,3.5,12h4.9c0.5,0,1-0.1,1.5-0.3
	c0.8-0.3,1.5-1,1.8-1.8C11.9,9.4,12,9,12,8.5V3.5c0-0.5-0.1-1-0.3-1.5C11.5,1.7,11.3,1.3,11,1c-0.3-0.3-0.7-0.5-1.1-0.7
	C9.4,0.1,9,0,8.5,0H6z"/>
<path class="st0" d="M6,2.9C4.3,2.9,2.9,4.3,2.9,6S4.3,9.1,6,9.1S9.1,7.7,9.1,6l0,0c0-1.7-1.3-3-2.9-3.1C6.1,2.9,6.1,2.9,6,2.9z
	 M6,8C4.9,8,4,7.1,4,6s0.9-2,2-2s2,0.9,2,2c0,1.1-0.8,2-1.9,2C6.1,8,6,8,6,8z"/>
<circle class="st0" cx="9.2" cy="2.8" r="0.7"/>
</svg>
