<?xml version="1.0" encoding="utf-8"?>
<!-- Generator: Adobe Illustrator 21.0.2, SVG Export Plug-In . SVG Version: 6.00 Build 0)  -->
<svg version="1.1" id="Capa_1" xmlns="http://www.w3.org/2000/svg" xmlns:xlink="http://www.w3.org/1999/xlink" x="0px" y="0px"
	 viewBox="0 0 15 12" style="enable-background:new 0 0 15 12;" xml:space="preserve">
<style type="text/css">
	.st0{fill:#9D9D9D;}
</style>
<title>twitter_icn</title>
<path class="st0" d="M14.6,0.2C14,0.6,13.3,0.8,12.7,1c-1.2-1.2-3.1-1.3-4.3-0.2l0,0c-0.8,0.8-1.1,1.9-0.9,3C5,3.6,2.7,2.5,1.1,0.5
	C0.3,1.9,0.7,3.7,2,4.6c-0.5,0-1-0.1-1.4-0.4l0,0c0,1.5,1,2.7,2.5,3C2.9,7.3,2.6,7.3,2.3,7.3c-0.2,0-0.4,0-0.6-0.1
	c0.4,1.2,1.6,2.1,2.9,2.1c-1.3,1-3,1.4-4.6,1.2c4,2.6,9.3,1.5,12-2.5L12.1,8c0.9-1.4,1.4-3,1.4-4.6V3c0.6-0.4,1.1-1,1.5-1.6
	c-0.6,0.2-1.2,0.4-1.8,0.5C13.9,1.5,14.3,0.9,14.6,0.2z"/>
</svg>
