<?xml version="1.0" encoding="utf-8"?>
<!-- Generator: Adobe Illustrator 21.0.2, SVG Export Plug-In . SVG Version: 6.00 Build 0)  -->
<svg version="1.1" id="you" xmlns="http://www.w3.org/2000/svg" xmlns:xlink="http://www.w3.org/1999/xlink" x="0px" y="0px"
	 viewBox="0 0 17 12" style="enable-background:new 0 0 17 12;" xml:space="preserve">
<style type="text/css">
	.st0{fill:#9D9D9D;}
</style>
<title>youtube_icn</title>
<path class="st0" d="M16.1,0.9c-0.5-0.5-1.1-0.7-1.7-0.7C12.1,0,8.5,0,8.5,0l0,0c0,0-3.6,0-6,0.2c-0.6,0-1.3,0.3-1.7,0.7
	C0.4,1.4,0.2,2,0.1,2.6C0,3.5,0,4.4,0,5.4v1.3c0,0.9,0.1,1.8,0.2,2.8c0.1,0.6,0.3,1.2,0.7,1.7c0.5,0.5,1.2,0.7,1.9,0.7
	C4.1,12,8.5,12,8.5,12s3.6,0,5.9-0.2c0.6,0,1.3-0.3,1.7-0.7c0.4-0.5,0.6-1.1,0.7-1.7C16.9,8.5,17,7.6,17,6.6V5.4
	c0-0.9-0.1-1.9-0.2-2.8C16.7,2,16.5,1.4,16.1,0.9z M6.7,8.2V3.4l4.6,2.4L6.7,8.2z"/>
</svg>
